<svg xmlns="http://www.w3.org/2000/svg" width="40" height="20" viewBox="0 0 40 20" fill="none">
<path d="M25.7599 0.784L20.5525 9.11691C20.214 9.65712 20.214 10.3429 20.5525 10.8831L25.7599 19.216C26.0651 19.7036 26.5983 20 27.1735 20H39.444C39.7509 20 40 19.751 40 19.444V0.556002C40 0.249065 39.7509 0 39.444 0H27.1735C26.5983 0 26.0651 0.296414 25.7599 0.784Z" fill="currentColor"/>
<path d="M12.8264 20H0.555991C0.249054 20 0 19.751 0 19.444V0.556002C0 0.249065 0.249054 0 0.555991 0H12.8264C13.4017 0 13.9349 0.296414 14.2401 0.784L19.4475 9.11691C19.786 9.65712 19.786 10.3429 19.4475 10.8831L14.2401 19.216C13.9349 19.7036 13.4017 20 12.8264 20Z" fill="currentColor"/>
</svg>