<svg xmlns="http://www.w3.org/2000/svg" width="137" height="26" viewBox="0 0 137 26" fill="none">
<path d="M2.08565 20.0023H0V0H2.08565V8.81431C2.53212 7.86586 3.16068 7.13384 3.97133 6.61481C4.79051 6.09032 5.74301 5.82896 6.82881 5.82896C8.00934 5.82896 9.04252 6.07805 9.92835 6.57271C10.8142 7.06913 11.4948 7.78306 11.9719 8.71626C12.4473 9.64946 12.6858 10.744 12.6858 12.0017V20.0023H10.6002V12.2017C10.6002 10.8686 10.2195 9.80031 9.45825 9.00218C8.6952 8.2023 7.67605 7.80235 6.4008 7.80235C5.1045 7.80235 4.0608 8.2023 3.27144 9.00218C2.48033 9.80206 2.08565 10.8686 2.08565 12.2017V20.0023Z" fill="currentColor"/>
<path d="M20.1565 17.3486L15.6065 6.11313H13.377L19.1212 19.7543L16.7203 25.2594H18.9498L26.9785 6.11488H24.749L20.1565 17.3486Z" fill="currentColor"/>
<path fill-rule="evenodd" clip-rule="evenodd" d="M30.5078 25.2314H28.4221V6.11488H30.5078V9.33384C30.5216 9.30385 30.5356 9.27398 30.5499 9.24425C31.0743 8.14792 31.8181 7.30594 32.7794 6.7148C33.7406 6.12541 34.8685 5.82896 36.1648 5.82896C37.4225 5.82896 38.5802 6.14821 39.6362 6.78672C40.6922 7.42522 41.5219 8.30229 42.1218 9.41615C42.7217 10.53 43.0217 11.7439 43.0217 13.0595C43.0217 14.3751 42.7217 15.5837 42.1218 16.6888C41.5219 17.7939 40.694 18.6709 39.6362 19.3182C38.5785 19.9655 37.4225 20.29 36.1648 20.29C34.8703 20.29 33.7406 19.9953 32.7794 19.4042C31.8163 18.813 31.0726 17.971 30.5499 16.8747C30.5356 16.845 30.5216 16.8151 30.5078 16.7851V25.2314ZM30.5078 13.2114C30.5295 14.1579 30.7534 15.0066 31.1778 15.7573C31.6252 16.5484 32.2496 17.1712 33.0495 17.629C33.8511 18.0868 34.7545 18.3148 35.7649 18.3148C36.7367 18.3148 37.6172 18.0815 38.4084 17.6149C39.1977 17.1483 39.8274 16.5151 40.294 15.7152C40.7606 14.9153 40.9939 14.0295 40.9939 13.0577C40.9939 12.0859 40.7606 11.2001 40.294 10.4002C39.8274 9.60033 39.1995 8.96359 38.4084 8.48647C37.6172 8.0111 36.7367 7.77254 35.7649 7.77254C34.7545 7.77254 33.8511 8.00057 33.0495 8.4584C32.2496 8.91446 31.6252 9.54947 31.1778 10.3581C30.7534 11.1255 30.5295 11.975 30.5078 12.9066V13.2114Z" fill="currentColor"/>
<path fill-rule="evenodd" clip-rule="evenodd" d="M55.8794 19.0025C54.6691 19.8602 53.236 20.2882 51.5783 20.2882C50.2645 20.2882 49.0629 19.969 47.9771 19.3322C46.8913 18.6937 46.0388 17.8167 45.4196 16.7028C44.8004 15.5872 44.4917 14.354 44.4917 13.0016C44.4917 11.686 44.8074 10.4827 45.4354 9.38634C46.0634 8.29176 46.9159 7.42522 47.9929 6.78672C49.0682 6.14821 50.254 5.82896 51.5503 5.82896C52.7887 5.82896 53.9113 6.12541 54.9217 6.7148C55.9303 7.30594 56.7302 8.11635 57.3214 9.14427C57.9107 10.1722 58.2072 11.3264 58.2072 12.6017C58.2072 12.8683 58.1984 13.1437 58.1791 13.4296H46.5365C46.5925 14.3022 46.8028 15.0882 47.165 15.7889C47.593 16.6186 48.1929 17.2659 48.9647 17.7325C49.7365 18.1991 50.6259 18.4324 51.6362 18.4324C52.7413 18.4324 53.6973 18.1745 54.5077 17.6605C55.3164 17.1466 55.8163 16.4607 56.0075 15.603H58.0651C57.8178 17.0115 57.088 18.1447 55.8794 19.0025ZM46.6424 11.6579C46.7454 11.1401 46.9143 10.6593 47.1492 10.216C47.5684 9.42492 48.1578 8.80572 48.9208 8.35842C49.6821 7.91112 50.5399 7.68659 51.4924 7.68659C52.2923 7.68659 53.0202 7.85849 53.678 8.20055C54.3358 8.5426 54.8691 9.01446 55.2778 9.61437C55.6865 10.2143 55.9216 10.8949 55.9777 11.6579H46.6424Z" fill="currentColor"/>
<path d="M62.5504 20.0023H60.4647L60.4665 6.11488H62.5521V8.40052C62.9135 7.63922 63.4468 7.02001 64.1519 6.54289C64.8553 6.06752 65.6184 5.82896 66.4375 5.82896C66.8743 5.82896 67.3129 5.88685 67.7514 6.00086V7.94444C67.2936 7.79183 66.8462 7.7164 66.4077 7.7164C65.7026 7.7164 65.0553 7.88831 64.4641 8.23036C63.873 8.57417 63.4064 9.06006 63.0644 9.68804C62.7223 10.316 62.5504 11.0124 62.5504 11.7737V20.0023Z" fill="currentColor"/>
<path fill-rule="evenodd" clip-rule="evenodd" d="M71.4421 25.2314H69.3564V6.11488H71.4421V9.33766C71.4565 9.30638 71.4711 9.27525 71.4859 9.24425C72.0104 8.14792 72.7542 7.30594 73.7154 6.7148C74.6767 6.12541 75.8046 5.82896 77.1009 5.82896C78.3568 5.82896 79.5146 6.14821 80.5723 6.78672C81.6283 7.42522 82.458 8.30229 83.0579 9.41615C83.6578 10.53 83.9578 11.7439 83.9578 13.0595C83.9578 14.3751 83.6578 15.5837 83.0579 16.6888C82.458 17.7939 81.63 18.6709 80.5723 19.3182C79.5146 19.9655 78.3586 20.29 77.1009 20.29C75.8063 20.29 74.6767 19.9953 73.7154 19.4042C72.7524 18.813 72.0087 17.971 71.4859 16.8747C71.4711 16.8437 71.4565 16.8126 71.4421 16.7813V25.2314ZM71.4421 13.0577C71.4421 14.0663 71.6666 14.9662 72.1139 15.7573C72.5612 16.5484 73.1857 17.1712 73.9855 17.629C74.7872 18.0868 75.6906 18.3148 76.701 18.3148C77.6727 18.3148 78.5533 18.0815 79.3444 17.6149C80.1338 17.1483 80.7635 16.5151 81.2301 15.7152C81.6967 14.9153 81.93 14.0295 81.93 13.0577C81.93 12.0859 81.6967 11.2001 81.2301 10.4002C80.7635 9.60033 80.1355 8.96359 79.3444 8.48647C78.5533 8.0111 77.6727 7.77254 76.701 7.77254C75.6906 7.77254 74.7854 8.00057 73.9855 8.4584C73.1857 8.91446 72.5612 9.54947 72.1139 10.3581C71.6666 11.1668 71.4421 12.0666 71.4421 13.0577Z" fill="currentColor"/>
<path d="M88.2747 20.0023H86.189V0H88.2747V20.0023Z" fill="currentColor"/>
<path fill-rule="evenodd" clip-rule="evenodd" d="M100.803 19.4024C99.8414 19.9935 98.7205 20.2882 97.4452 20.2882C96.1682 20.2882 95.0017 19.9637 93.9457 19.3164C92.8898 18.6692 92.0601 17.7868 91.4602 16.673C90.8603 15.5591 90.5603 14.3453 90.5603 13.0297C90.5603 11.7141 90.8603 10.5055 91.4602 9.40037C92.0601 8.29703 92.888 7.42522 93.9457 6.78672C95.0017 6.14821 96.1682 5.82896 97.4452 5.82896C98.7205 5.82896 99.8414 6.12541 100.803 6.7148C101.766 7.30594 102.508 8.14968 103.032 9.24425C103.046 9.27394 103.06 9.30375 103.074 9.33368V6.11488H105.16V20.0023H103.074V16.7835C103.06 16.8134 103.046 16.8433 103.032 16.8729C102.508 17.9693 101.764 18.813 100.803 19.4024ZM103.074 13.0314C103.074 12.0421 102.85 11.1457 102.402 10.3458C101.955 9.54596 101.331 8.91798 100.531 8.46015C99.7291 8.00233 98.824 7.77429 97.8154 7.77429C96.8436 7.77429 95.963 8.01285 95.1719 8.48822C94.3808 8.9636 93.7528 9.60209 93.2862 10.402C92.8196 11.2019 92.5863 12.0789 92.5863 13.0314C92.5863 14.0225 92.8196 14.9171 93.2862 15.717C93.7528 16.5169 94.3808 17.1501 95.1719 17.6167C95.963 18.0833 96.8436 18.3166 97.8154 18.3166C98.8257 18.3166 99.7309 18.0868 100.531 17.6325C101.331 17.1764 101.955 16.5467 102.402 15.7468C102.85 14.9452 103.074 14.0418 103.074 13.0314Z" fill="currentColor"/>
<path d="M108.175 6.11488H110.261V8.81431C110.707 7.86586 111.336 7.13384 112.147 6.61481C112.966 6.09032 113.918 5.82896 115.004 5.82896C116.185 5.82896 117.218 6.07805 118.104 6.57271C118.989 7.06913 119.67 7.78306 120.147 8.71626C120.623 9.64946 120.861 10.744 120.861 12.0017V20.0023H118.775V12.2017C118.775 10.8686 118.393 9.80031 117.633 9.00218C116.872 8.2023 115.853 7.80235 114.576 7.80235C113.28 7.80235 112.238 8.2023 111.447 9.00218C110.656 9.80206 110.261 10.8686 110.261 12.2017V20.0023H108.175V6.11488Z" fill="currentColor"/>
<path fill-rule="evenodd" clip-rule="evenodd" d="M134.322 19.0025C133.112 19.8602 131.679 20.2882 130.021 20.2882C128.707 20.2882 127.507 19.969 126.422 19.3322C125.336 18.6937 124.483 17.8167 123.864 16.7028C123.245 15.5872 122.936 14.354 122.936 13.0016C122.936 11.686 123.25 10.4827 123.878 9.38634C124.508 8.29176 125.359 7.42522 126.436 6.78672C127.511 6.14821 128.697 5.82896 129.993 5.82896C131.231 5.82896 132.354 6.12541 133.364 6.7148C134.373 7.30594 135.173 8.11635 135.764 9.14427C136.355 10.1722 136.65 11.3264 136.65 12.6017C136.65 12.8683 136.641 13.1437 136.622 13.4296H124.979C125.035 14.3018 125.246 15.0868 125.608 15.7889C126.036 16.6186 126.636 17.2659 127.407 17.7325C128.179 18.1991 129.069 18.4324 130.079 18.4324C131.184 18.4324 132.14 18.1745 132.951 17.6605C133.759 17.1466 134.259 16.4607 134.45 15.603H136.508C136.261 17.0115 135.531 18.1447 134.322 19.0025ZM125.085 11.6579C125.188 11.1401 125.357 10.6593 125.592 10.216C126.011 9.42492 126.601 8.80572 127.364 8.35842C128.125 7.91112 128.983 7.68659 129.935 7.68659C130.735 7.68659 131.463 7.85849 132.121 8.20055C132.779 8.5426 133.31 9.01446 133.721 9.61437C134.129 10.2143 134.364 10.8949 134.42 11.6579H125.085Z" fill="currentColor"/>
</svg>